<svg xmlns="http://www.w3.org/2000/svg" xmlns:xlink="http://www.w3.org/1999/xlink" width="41.25" viewBox="0 0 41.25 41.25" height="41.25" version="1.0"><defs><clipPath id="b"><path d="M 0 0 L 40.511719 0 L 40.511719 40.511719 L 0 40.511719 Z M 0 0"/></clipPath><clipPath id="c"><path d="M 0 0 L 17 0 L 17 40.511719 L 0 40.511719 Z M 0 0"/></clipPath><clipPath id="f"><path d="M 0 0 L 16.5 0 L 16.5 40.511719 L 0 40.511719 Z M 0 0"/></clipPath><clipPath id="e"><path d="M0 0H17V41H0z"/></clipPath><clipPath id="g"><path d="M 4.050781 5 L 36.460938 5 L 36.460938 35 L 4.050781 35 Z M 4.050781 5"/></clipPath><filter x="0%" y="0%" width="100%" xmlns:xlink="http://www.w3.org/1999/xlink" xlink:type="simple" xlink:actuate="onLoad" height="100%" id="a" xlink:show="other"><feColorMatrix values="0 0 0 0 1 0 0 0 0 1 0 0 0 0 1 0 0 0 1 0" color-interpolation-filters="sRGB"/></filter><mask id="d"><g filter="url(#a)"><path fill-opacity=".247" d="M-4.125 -4.125H45.375V45.375H-4.125z"/></g></mask></defs><g clip-path="url(#b)" fill="#FFF"><path d="M 0 0 L 41.25 0 L 41.25 137.746094 L 0 137.746094 Z M 0 0"/><path d="M 0 0 L 40.511719 0 L 40.511719 40.511719 L 0 40.511719 Z M 0 0"/><path d="M 0 0 L 40.511719 0 L 40.511719 40.511719 L 0 40.511719 Z M 0 0"/></g><g clip-path="url(#c)"><g mask="url(#d)"><g><g clip-path="url(#e)"><g clip-path="url(#f)"><path fill="#0DA9EF" d="M 0 0 L 16.207031 0 L 16.207031 40.511719 L 0 40.511719 Z M 0 0"/></g></g></g></g></g><g clip-path="url(#g)"><path fill="#0DA9EF" d="M 35.921875 28.898438 L 35.382812 28.898438 L 35.382812 17.554688 L 29.964844 17.554688 C 31.601562 16.4375 32.679688 14.554688 32.679688 12.425781 C 32.679688 9 29.894531 6.210938 26.46875 6.210938 C 24.339844 6.210938 22.457031 7.289062 21.335938 8.929688 L 21.335938 6.210938 L 12.152344 6.210938 L 12.152344 28.898438 L 9.992188 28.898438 L 9.992188 7.832031 C 9.992188 7.535156 9.75 7.292969 9.453125 7.292969 L 8.296875 7.292969 C 8.054688 6.363281 7.214844 5.671875 6.210938 5.671875 C 5.019531 5.671875 4.050781 6.640625 4.050781 7.832031 C 4.050781 9.023438 5.019531 9.992188 6.210938 9.992188 C 7.214844 9.992188 8.054688 9.300781 8.296875 8.371094 L 8.914062 8.371094 L 8.914062 29.441406 C 8.914062 29.738281 9.15625 29.980469 9.453125 29.980469 L 13.25 29.980469 C 12.589844 30.472656 12.152344 31.253906 12.152344 32.140625 C 12.152344 33.628906 13.367188 34.839844 14.855469 34.839844 C 16.34375 34.839844 17.554688 33.628906 17.554688 32.140625 C 17.554688 31.253906 17.121094 30.472656 16.457031 29.980469 L 29.457031 29.980469 C 28.792969 30.472656 28.359375 31.253906 28.359375 32.140625 C 28.359375 33.628906 29.570312 34.839844 31.058594 34.839844 C 32.550781 34.839844 33.761719 33.628906 33.761719 32.140625 C 33.761719 31.253906 33.324219 30.472656 32.664062 29.980469 L 35.921875 29.980469 C 36.21875 29.980469 36.460938 29.738281 36.460938 29.441406 C 36.460938 29.140625 36.21875 28.898438 35.921875 28.898438 Z M 6.210938 8.914062 C 5.617188 8.914062 5.132812 8.429688 5.132812 7.832031 C 5.132812 7.238281 5.617188 6.753906 6.210938 6.753906 C 6.609375 6.753906 6.953125 6.972656 7.140625 7.292969 L 6.753906 7.292969 C 6.453125 7.292969 6.210938 7.535156 6.210938 7.832031 C 6.210938 8.132812 6.453125 8.371094 6.753906 8.371094 L 7.140625 8.371094 C 6.953125 8.695312 6.609375 8.914062 6.210938 8.914062 Z M 14.855469 33.761719 C 13.960938 33.761719 13.234375 33.035156 13.234375 32.140625 C 13.234375 31.246094 13.960938 30.519531 14.855469 30.519531 C 15.75 30.519531 16.476562 31.246094 16.476562 32.140625 C 16.476562 33.035156 15.75 33.761719 14.855469 33.761719 Z M 31.058594 33.761719 C 30.167969 33.761719 29.441406 33.035156 29.441406 32.140625 C 29.441406 31.246094 30.167969 30.519531 31.058594 30.519531 C 31.953125 30.519531 32.679688 31.246094 32.679688 32.140625 C 32.679688 33.035156 31.953125 33.761719 31.058594 33.761719 Z M 26.738281 18.636719 L 28.359375 18.636719 L 28.359375 20.796875 L 26.738281 20.796875 Z M 26.46875 7.292969 C 29.296875 7.292969 31.601562 9.59375 31.601562 12.425781 C 31.601562 15.253906 29.296875 17.554688 26.46875 17.554688 C 23.640625 17.554688 21.335938 15.253906 21.335938 12.425781 C 21.335938 9.59375 23.640625 7.292969 26.46875 7.292969 Z M 22.972656 17.554688 L 21.335938 17.554688 L 21.335938 15.917969 C 21.777344 16.5625 22.332031 17.117188 22.972656 17.554688 Z M 17.554688 7.292969 L 17.554688 9.453125 L 15.933594 9.453125 L 15.933594 7.292969 Z M 13.234375 28.898438 L 13.234375 7.292969 L 14.855469 7.292969 L 14.855469 10.535156 L 18.636719 10.535156 L 18.636719 7.292969 L 20.257812 7.292969 L 20.257812 28.898438 Z M 21.335938 28.898438 L 21.335938 18.636719 L 25.660156 18.636719 L 25.660156 21.878906 L 29.441406 21.878906 L 29.441406 18.636719 L 34.300781 18.636719 L 34.300781 28.898438 Z M 21.335938 28.898438"/></g></svg>