<svg xmlns="http://www.w3.org/2000/svg" xmlns:xlink="http://www.w3.org/1999/xlink" width="41.25" viewBox="0 0 41.25 41.25" height="41.25" version="1.0"><defs><clipPath id="b"><path d="M 0 0 L 40.511719 0 L 40.511719 40.511719 L 0 40.511719 Z M 0 0"/></clipPath><clipPath id="c"><path d="M 0 24 L 40.511719 24 L 40.511719 40.511719 L 0 40.511719 Z M 0 24"/></clipPath><clipPath id="f"><path d="M 0 0.515625 L 40.511719 0.515625 L 40.511719 16.511719 L 0 16.511719 Z M 0 0.515625"/></clipPath><clipPath id="e"><path d="M0 0H41V17H0z"/></clipPath><clipPath id="g"><path d="M 8 4.050781 L 36.460938 4.050781 L 36.460938 21 L 8 21 Z M 8 4.050781"/></clipPath><clipPath id="h"><path d="M 4.050781 23 L 6 23 L 6 25 L 4.050781 25 Z M 4.050781 23"/></clipPath><clipPath id="i"><path d="M 4.050781 21 L 6 21 L 6 24 L 4.050781 24 Z M 4.050781 21"/></clipPath><clipPath id="j"><path d="M 4.050781 25 L 7 25 L 7 27 L 4.050781 27 Z M 4.050781 25"/></clipPath><clipPath id="k"><path d="M 4.050781 20 L 6 20 L 6 22 L 4.050781 22 Z M 4.050781 20"/></clipPath><clipPath id="l"><path d="M 35 21 L 36.460938 21 L 36.460938 23 L 35 23 Z M 35 21"/></clipPath><clipPath id="m"><path d="M 35 22 L 36.460938 22 L 36.460938 25 L 35 25 Z M 35 22"/></clipPath><clipPath id="n"><path d="M 16 35 L 18 35 L 18 36.460938 L 16 36.460938 Z M 16 35"/></clipPath><clipPath id="o"><path d="M 18 35 L 20 35 L 20 36.460938 L 18 36.460938 Z M 18 35"/></clipPath><clipPath id="p"><path d="M 21 35 L 23 35 L 23 36.460938 L 21 36.460938 Z M 21 35"/></clipPath><clipPath id="q"><path d="M 23 34 L 25 34 L 25 36.460938 L 23 36.460938 Z M 23 34"/></clipPath><clipPath id="r"><path d="M 20 35 L 22 35 L 22 36.460938 L 20 36.460938 Z M 20 35"/></clipPath><filter x="0%" y="0%" width="100%" xmlns:xlink="http://www.w3.org/1999/xlink" xlink:type="simple" xlink:actuate="onLoad" height="100%" id="a" xlink:show="other"><feColorMatrix values="0 0 0 0 1 0 0 0 0 1 0 0 0 0 1 0 0 0 1 0" color-interpolation-filters="sRGB"/></filter><mask id="d"><g filter="url(#a)"><path fill-opacity=".247" d="M-4.125 -4.125H45.375V45.375H-4.125z"/></g></mask></defs><g clip-path="url(#b)" fill="#FFF"><path d="M 0 0 L 40.511719 0 L 40.511719 40.511719 L 0 40.511719 Z M 0 0"/><path d="M 0 0 L 40.511719 0 L 40.511719 40.511719 L 0 40.511719 Z M 0 0"/></g><g clip-path="url(#c)"><g mask="url(#d)"><g><g clip-path="url(#e)" transform="translate(0 24)"><g clip-path="url(#f)"><path fill="#0DA9EF" d="M 0.0117188 0.632812 L 40.5 0.632812 L 40.5 16.835938 L 0.0117188 16.835938 Z M 0.0117188 0.632812"/></g></g></g></g></g><path fill="#0DA9EF" d="M 20.25 32.144531 C 26.804688 32.144531 32.136719 26.8125 32.136719 20.257812 C 32.136719 13.707031 26.804688 8.375 20.25 8.375 C 13.699219 8.375 8.367188 13.707031 8.367188 20.257812 C 8.367188 26.8125 13.699219 32.144531 20.25 32.144531 Z M 20.25 9.453125 C 26.210938 9.453125 31.058594 14.300781 31.058594 20.257812 C 31.058594 26.21875 26.210938 31.066406 20.25 31.066406 C 14.292969 31.066406 9.445312 26.21875 9.445312 20.257812 C 9.445312 14.300781 14.292969 9.453125 20.25 9.453125 Z M 20.25 9.453125"/><path fill="#0DA9EF" d="M 20.25 12.15625 C 20.550781 12.15625 20.792969 11.914062 20.792969 11.613281 L 20.792969 10.535156 C 20.792969 10.234375 20.550781 9.996094 20.25 9.996094 C 19.953125 9.996094 19.710938 10.234375 19.710938 10.535156 L 19.710938 11.613281 C 19.710938 11.914062 19.953125 12.15625 20.25 12.15625 Z M 20.25 12.15625"/><path fill="#0DA9EF" d="M 20.25 28.363281 C 19.953125 28.363281 19.710938 28.605469 19.710938 28.902344 L 19.710938 29.984375 C 19.710938 30.28125 19.953125 30.523438 20.25 30.523438 C 20.550781 30.523438 20.792969 30.28125 20.792969 29.984375 L 20.792969 28.902344 C 20.792969 28.605469 20.550781 28.363281 20.25 28.363281 Z M 20.25 28.363281"/><path fill="#0DA9EF" d="M 28.894531 20.800781 L 29.976562 20.800781 C 30.273438 20.800781 30.515625 20.558594 30.515625 20.257812 C 30.515625 19.960938 30.273438 19.71875 29.976562 19.71875 L 28.894531 19.71875 C 28.597656 19.71875 28.355469 19.960938 28.355469 20.257812 C 28.355469 20.558594 28.597656 20.800781 28.894531 20.800781 Z M 28.894531 20.800781"/><path fill="#0DA9EF" d="M 11.605469 19.71875 L 10.527344 19.71875 C 10.226562 19.71875 9.984375 19.960938 9.984375 20.257812 C 9.984375 20.558594 10.226562 20.800781 10.527344 20.800781 L 11.605469 20.800781 C 11.90625 20.800781 12.148438 20.558594 12.148438 20.257812 C 12.148438 19.960938 11.90625 19.71875 11.605469 19.71875 Z M 11.605469 19.71875"/><path fill="#0DA9EF" d="M 14.308594 26.203125 C 14.445312 26.203125 14.585938 26.148438 14.691406 26.042969 L 19.160156 21.574219 C 19.480469 21.765625 19.851562 21.878906 20.25 21.878906 C 21.441406 21.878906 22.414062 20.910156 22.414062 19.71875 C 22.414062 18.714844 21.722656 17.875 20.792969 17.636719 L 20.792969 14.855469 C 20.792969 14.558594 20.550781 14.316406 20.25 14.316406 C 19.953125 14.316406 19.710938 14.558594 19.710938 14.855469 L 19.710938 17.636719 C 18.78125 17.875 18.089844 18.714844 18.089844 19.71875 C 18.089844 20.117188 18.207031 20.488281 18.398438 20.808594 L 13.925781 25.28125 C 13.714844 25.492188 13.714844 25.832031 13.925781 26.042969 C 14.03125 26.148438 14.171875 26.203125 14.308594 26.203125 Z M 20.25 18.636719 C 20.847656 18.636719 21.332031 19.125 21.332031 19.71875 C 21.332031 20.316406 20.847656 20.800781 20.25 20.800781 C 19.65625 20.800781 19.171875 20.316406 19.171875 19.71875 C 19.171875 19.125 19.65625 18.636719 20.25 18.636719 Z M 20.25 18.636719"/><g clip-path="url(#g)"><path fill="#0DA9EF" d="M 9.492188 9.453125 L 13.769531 9.453125 C 14.066406 9.453125 14.308594 9.210938 14.308594 8.914062 C 14.308594 8.613281 14.066406 8.375 13.769531 8.375 L 10.902344 8.375 C 13.5625 6.273438 16.832031 5.132812 20.25 5.132812 C 28.59375 5.132812 35.378906 11.917969 35.378906 20.257812 C 35.378906 20.558594 35.621094 20.800781 35.917969 20.800781 C 36.21875 20.800781 36.460938 20.558594 36.460938 20.257812 C 36.460938 11.324219 29.1875 4.050781 20.25 4.050781 C 16.480469 4.050781 12.882812 5.351562 9.988281 7.730469 L 9.988281 4.589844 C 9.988281 4.292969 9.746094 4.050781 9.445312 4.050781 C 9.148438 4.050781 8.90625 4.292969 8.90625 4.589844 L 8.90625 9.453125 L 9.386719 9.453125 C 9.421875 9.457031 9.457031 9.457031 9.492188 9.453125 Z M 9.492188 9.453125"/></g><path fill="#0DA9EF" d="M 6.648438 26.867188 C 6.511719 26.597656 6.195312 26.488281 5.921875 26.617188 C 5.652344 26.746094 5.546875 27.070312 5.675781 27.339844 C 5.765625 27.53125 5.960938 27.644531 6.160156 27.644531 C 6.238281 27.644531 6.316406 27.628906 6.394531 27.589844 C 6.664062 27.460938 6.777344 27.136719 6.648438 26.867188 Z M 6.648438 26.867188"/><path fill="#0DA9EF" d="M 8.296875 29.519531 C 8.113281 29.28125 7.777344 29.238281 7.539062 29.421875 C 7.300781 29.605469 7.257812 29.945312 7.441406 30.179688 C 7.550781 30.320312 7.710938 30.390625 7.867188 30.390625 C 7.988281 30.390625 8.101562 30.351562 8.203125 30.277344 C 8.4375 30.09375 8.480469 29.75 8.296875 29.519531 Z M 8.296875 29.519531"/><path fill="#0DA9EF" d="M 7.402344 28.234375 C 7.246094 27.980469 6.910156 27.902344 6.65625 28.0625 C 6.402344 28.222656 6.328125 28.550781 6.484375 28.804688 C 6.589844 28.96875 6.765625 29.0625 6.945312 29.0625 C 7.042969 29.0625 7.140625 29.035156 7.230469 28.980469 C 7.484375 28.824219 7.558594 28.488281 7.402344 28.234375 Z M 7.402344 28.234375"/><path fill="#0DA9EF" d="M 8.554688 30.6875 C 8.339844 30.890625 8.332031 31.230469 8.539062 31.449219 C 8.640625 31.5625 8.785156 31.617188 8.925781 31.617188 C 9.0625 31.617188 9.199219 31.566406 9.300781 31.464844 C 9.515625 31.257812 9.527344 30.917969 9.316406 30.703125 C 9.109375 30.488281 8.769531 30.480469 8.554688 30.6875 Z M 8.554688 30.6875"/><path fill="#0DA9EF" d="M 9.695312 31.835938 C 9.5 32.0625 9.527344 32.40625 9.753906 32.597656 C 9.855469 32.6875 9.980469 32.730469 10.105469 32.730469 C 10.257812 32.730469 10.40625 32.664062 10.515625 32.539062 C 10.710938 32.3125 10.683594 31.972656 10.457031 31.777344 C 10.230469 31.582031 9.890625 31.609375 9.695312 31.835938 Z M 9.695312 31.835938"/><g clip-path="url(#h)"><path fill="#0DA9EF" d="M 5.183594 24.59375 C 5.46875 24.515625 5.648438 24.226562 5.578125 23.933594 C 5.503906 23.648438 5.210938 23.46875 4.917969 23.542969 C 4.632812 23.613281 4.453125 23.90625 4.53125 24.199219 C 4.589844 24.441406 4.808594 24.609375 5.054688 24.609375 C 5.097656 24.609375 5.140625 24.601562 5.183594 24.59375 Z M 5.183594 24.59375"/></g><g clip-path="url(#i)"><path fill="#0DA9EF" d="M 4.816406 23.007812 C 5.113281 22.964844 5.316406 22.695312 5.273438 22.398438 C 5.230469 22.101562 4.957031 21.894531 4.664062 21.9375 C 4.367188 21.980469 4.160156 22.257812 4.207031 22.550781 C 4.242188 22.820312 4.476562 23.015625 4.738281 23.015625 C 4.765625 23.015625 4.789062 23.015625 4.816406 23.007812 Z M 4.816406 23.007812"/></g><g clip-path="url(#j)"><path fill="#0DA9EF" d="M 6.03125 25.429688 C 5.933594 25.148438 5.621094 25.003906 5.339844 25.105469 C 5.058594 25.207031 4.917969 25.515625 5.019531 25.796875 C 5.097656 26.019531 5.308594 26.152344 5.523438 26.152344 C 5.589844 26.152344 5.648438 26.140625 5.710938 26.121094 C 5.992188 26.019531 6.132812 25.710938 6.03125 25.429688 Z M 6.03125 25.429688"/></g><g clip-path="url(#k)"><path fill="#0DA9EF" d="M 4.59375 21.40625 C 4.601562 21.40625 4.609375 21.40625 4.617188 21.40625 C 4.914062 21.394531 5.144531 21.140625 5.132812 20.84375 C 5.125 20.546875 4.871094 20.3125 4.574219 20.324219 C 4.277344 20.335938 4.042969 20.582031 4.054688 20.886719 C 4.066406 21.171875 4.308594 21.40625 4.59375 21.40625 Z M 4.59375 21.40625"/></g><path fill="#0DA9EF" d="M 10.949219 32.871094 C 10.773438 33.113281 10.839844 33.449219 11.082031 33.621094 C 11.179688 33.683594 11.28125 33.710938 11.390625 33.710938 C 11.5625 33.710938 11.730469 33.632812 11.832031 33.480469 C 12.007812 33.238281 11.941406 32.894531 11.699219 32.730469 C 11.449219 32.5625 11.117188 32.621094 10.949219 32.871094 Z M 10.949219 32.871094"/><path fill="#0DA9EF" d="M 30.484375 31.394531 L 30.484375 31.390625 C 30.261719 31.59375 30.246094 31.933594 30.453125 32.15625 C 30.558594 32.269531 30.707031 32.328125 30.851562 32.328125 C 30.980469 32.328125 31.109375 32.28125 31.214844 32.1875 C 31.433594 31.984375 31.445312 31.640625 31.246094 31.425781 C 31.046875 31.207031 30.699219 31.1875 30.484375 31.394531 Z M 30.484375 31.394531"/><path fill="#0DA9EF" d="M 31.582031 30.277344 C 31.378906 30.496094 31.402344 30.835938 31.625 31.039062 C 31.726562 31.128906 31.855469 31.171875 31.980469 31.171875 C 32.132812 31.171875 32.277344 31.113281 32.386719 30.988281 C 32.585938 30.769531 32.5625 30.425781 32.34375 30.226562 C 32.117188 30.03125 31.773438 30.050781 31.582031 30.277344 Z M 31.582031 30.277344"/><path fill="#0DA9EF" d="M 32.554688 29.050781 C 32.378906 29.292969 32.433594 29.632812 32.675781 29.804688 C 32.773438 29.875 32.882812 29.90625 32.992188 29.90625 C 33.164062 29.90625 33.324219 29.828125 33.433594 29.679688 C 33.605469 29.4375 33.550781 29.105469 33.308594 28.925781 C 33.066406 28.753906 32.726562 28.8125 32.554688 29.050781 Z M 32.554688 29.050781"/><path fill="#0DA9EF" d="M 29.277344 32.386719 C 29.042969 32.566406 28.992188 32.90625 29.171875 33.144531 C 29.273438 33.289062 29.4375 33.359375 29.601562 33.359375 C 29.714844 33.359375 29.832031 33.328125 29.921875 33.257812 C 30.164062 33.078125 30.214844 32.738281 30.035156 32.5 C 29.855469 32.257812 29.515625 32.210938 29.277344 32.386719 Z M 29.277344 32.386719"/><path fill="#0DA9EF" d="M 27.976562 33.257812 C 27.722656 33.414062 27.636719 33.746094 27.792969 34 C 27.890625 34.171875 28.074219 34.261719 28.257812 34.261719 C 28.351562 34.261719 28.445312 34.242188 28.535156 34.1875 C 28.789062 34.035156 28.875 33.703125 28.71875 33.449219 C 28.566406 33.191406 28.238281 33.105469 27.976562 33.257812 Z M 27.976562 33.257812"/><path fill="#0DA9EF" d="M 34.136719 27.53125 C 33.875 27.386719 33.546875 27.476562 33.394531 27.738281 L 33.402344 27.738281 C 33.25 27.996094 33.34375 28.324219 33.601562 28.472656 C 33.683594 28.519531 33.773438 28.542969 33.867188 28.542969 C 34.054688 28.542969 34.238281 28.445312 34.335938 28.273438 C 34.488281 28.011719 34.394531 27.683594 34.136719 27.53125 Z M 34.136719 27.53125"/><g clip-path="url(#l)"><path fill="#0DA9EF" d="M 35.890625 21.339844 C 35.59375 21.308594 35.332031 21.523438 35.296875 21.820312 C 35.265625 22.117188 35.480469 22.382812 35.777344 22.414062 C 35.800781 22.414062 35.816406 22.414062 35.839844 22.414062 C 36.109375 22.414062 36.347656 22.210938 36.371094 21.929688 C 36.40625 21.636719 36.1875 21.367188 35.890625 21.339844 Z M 35.890625 21.339844"/></g><g clip-path="url(#m)"><path fill="#0DA9EF" d="M 35.699219 22.949219 C 35.40625 22.882812 35.121094 23.074219 35.058594 23.367188 C 34.996094 23.65625 35.183594 23.945312 35.476562 24.003906 C 35.515625 24.015625 35.550781 24.015625 35.589844 24.015625 C 35.839844 24.015625 36.066406 23.84375 36.113281 23.589844 C 36.179688 23.296875 35.988281 23.007812 35.699219 22.949219 Z M 35.699219 22.949219"/></g><path fill="#0DA9EF" d="M 35.335938 24.527344 C 35.054688 24.433594 34.746094 24.59375 34.660156 24.878906 C 34.570312 25.160156 34.726562 25.46875 35.007812 25.558594 C 35.058594 25.574219 35.121094 25.582031 35.171875 25.582031 C 35.402344 25.582031 35.609375 25.433594 35.6875 25.207031 C 35.777344 24.921875 35.621094 24.617188 35.335938 24.527344 Z M 35.335938 24.527344"/><path fill="#0DA9EF" d="M 34.816406 26.0625 C 34.542969 25.941406 34.222656 26.066406 34.105469 26.335938 C 33.980469 26.613281 34.105469 26.933594 34.378906 27.050781 C 34.449219 27.082031 34.523438 27.097656 34.59375 27.097656 C 34.804688 27.097656 35 26.976562 35.09375 26.773438 C 35.210938 26.5 35.085938 26.179688 34.816406 26.0625 Z M 34.816406 26.0625"/><path fill="#0DA9EF" d="M 26.597656 33.992188 C 26.324219 34.117188 26.210938 34.4375 26.335938 34.707031 C 26.425781 34.90625 26.621094 35.019531 26.828125 35.019531 C 26.902344 35.019531 26.976562 35.003906 27.054688 34.96875 C 27.324219 34.847656 27.441406 34.523438 27.3125 34.25 C 27.1875 33.980469 26.871094 33.863281 26.597656 33.992188 Z M 26.597656 33.992188"/><g clip-path="url(#n)"><path fill="#0DA9EF" d="M 17.429688 35.121094 C 17.140625 35.066406 16.851562 35.257812 16.800781 35.554688 C 16.746094 35.847656 16.933594 36.128906 17.230469 36.1875 C 17.261719 36.191406 17.296875 36.191406 17.328125 36.191406 C 17.582031 36.191406 17.808594 36.015625 17.863281 35.753906 C 17.917969 35.460938 17.722656 35.175781 17.429688 35.121094 Z M 17.429688 35.121094"/></g><g clip-path="url(#o)"><path fill="#0DA9EF" d="M 18.980469 35.332031 C 18.683594 35.304688 18.417969 35.527344 18.398438 35.824219 C 18.371094 36.128906 18.59375 36.386719 18.890625 36.414062 C 18.890625 36.40625 18.890625 36.40625 18.890625 36.40625 C 18.90625 36.414062 18.921875 36.414062 18.933594 36.414062 C 19.214844 36.414062 19.453125 36.199219 19.472656 35.914062 C 19.496094 35.621094 19.277344 35.359375 18.980469 35.332031 Z M 18.980469 35.332031"/></g><path fill="#0DA9EF" d="M 15.914062 34.753906 C 15.625 34.667969 15.324219 34.832031 15.238281 35.113281 C 15.15625 35.398438 15.3125 35.699219 15.597656 35.785156 C 15.652344 35.800781 15.707031 35.808594 15.757812 35.808594 C 15.988281 35.808594 16.203125 35.65625 16.273438 35.425781 C 16.363281 35.136719 16.199219 34.835938 15.914062 34.753906 Z M 15.914062 34.753906"/><path fill="#0DA9EF" d="M 14.4375 34.226562 C 14.164062 34.113281 13.847656 34.242188 13.734375 34.515625 C 13.617188 34.792969 13.746094 35.105469 14.023438 35.226562 C 14.09375 35.253906 14.164062 35.261719 14.234375 35.261719 C 14.445312 35.261719 14.644531 35.140625 14.730469 34.933594 C 14.84375 34.65625 14.714844 34.339844 14.4375 34.226562 Z M 14.4375 34.226562"/><g clip-path="url(#p)"><path fill="#0DA9EF" d="M 22.105469 35.273438 C 21.808594 35.3125 21.597656 35.582031 21.632812 35.871094 C 21.667969 36.148438 21.898438 36.347656 22.167969 36.347656 C 22.191406 36.347656 22.210938 36.347656 22.234375 36.34375 C 22.234375 36.347656 22.234375 36.347656 22.234375 36.347656 C 22.53125 36.3125 22.742188 36.039062 22.703125 35.742188 C 22.671875 35.445312 22.402344 35.234375 22.105469 35.273438 Z M 22.105469 35.273438"/></g><path fill="#0DA9EF" d="M 25.148438 34.578125 C 24.867188 34.667969 24.714844 34.976562 24.8125 35.261719 C 24.886719 35.484375 25.097656 35.625 25.320312 35.625 C 25.378906 35.625 25.4375 35.613281 25.496094 35.597656 C 25.777344 35.5 25.929688 35.191406 25.832031 34.910156 C 25.734375 34.625 25.425781 34.480469 25.148438 34.578125 Z M 25.148438 34.578125"/><g clip-path="url(#q)"><path fill="#0DA9EF" d="M 23.644531 35.003906 C 23.351562 35.066406 23.167969 35.359375 23.238281 35.652344 C 23.292969 35.898438 23.519531 36.066406 23.761719 36.066406 C 23.804688 36.066406 23.84375 36.066406 23.886719 36.058594 C 24.171875 35.992188 24.355469 35.699219 24.292969 35.410156 C 24.222656 35.117188 23.9375 34.9375 23.644531 35.003906 Z M 23.644531 35.003906"/></g><g clip-path="url(#r)"><path fill="#0DA9EF" d="M 20.542969 35.382812 C 20.246094 35.386719 20.007812 35.636719 20.011719 35.933594 C 20.019531 36.230469 20.261719 36.460938 20.554688 36.460938 C 20.558594 36.460938 20.558594 36.460938 20.566406 36.460938 C 20.863281 36.457031 21.097656 36.214844 21.09375 35.910156 C 21.089844 35.613281 20.839844 35.375 20.542969 35.382812 Z M 20.542969 35.382812"/></g><path fill="#0DA9EF" d="M 13.027344 33.550781 C 12.769531 33.402344 12.4375 33.5 12.292969 33.765625 C 12.152344 34.023438 12.25 34.355469 12.515625 34.496094 C 12.59375 34.542969 12.683594 34.566406 12.769531 34.566406 C 12.964844 34.566406 13.148438 34.464844 13.242188 34.28125 C 13.390625 34.019531 13.292969 33.691406 13.027344 33.550781 Z M 13.027344 33.550781"/></svg>