<svg xmlns="http://www.w3.org/2000/svg" xmlns:xlink="http://www.w3.org/1999/xlink" width="41.25" viewBox="0 0 41.25 41.25" height="41.25" version="1.0"><defs><clipPath id="b"><path d="M 0 0 L 40.511719 0 L 40.511719 40.511719 L 0 40.511719 Z M 0 0"/></clipPath><clipPath id="c"><path d="M 0 0 L 17 0 L 17 40.511719 L 0 40.511719 Z M 0 0"/></clipPath><clipPath id="f"><path d="M 0 0 L 16.5 0 L 16.5 40.511719 L 0 40.511719 Z M 0 0"/></clipPath><clipPath id="e"><path d="M0 0H17V41H0z"/></clipPath><clipPath id="g"><path d="M 4 4.050781 L 36.398438 4.050781 L 36.398438 36.460938 L 4 36.460938 Z M 4 4.050781"/></clipPath><filter x="0%" y="0%" width="100%" xmlns:xlink="http://www.w3.org/1999/xlink" xlink:type="simple" xlink:actuate="onLoad" height="100%" id="a" xlink:show="other"><feColorMatrix values="0 0 0 0 1 0 0 0 0 1 0 0 0 0 1 0 0 0 1 0" color-interpolation-filters="sRGB"/></filter><mask id="d"><g filter="url(#a)"><path fill-opacity=".247" d="M-4.125 -4.125H45.375V45.375H-4.125z"/></g></mask></defs><g clip-path="url(#b)" fill="#FFF"><path d="M 0 0 L 40.511719 0 L 40.511719 40.511719 L 0 40.511719 Z M 0 0"/><path d="M 0 0 L 40.511719 0 L 40.511719 40.511719 L 0 40.511719 Z M 0 0"/></g><g clip-path="url(#c)"><g mask="url(#d)"><g><g clip-path="url(#e)"><g clip-path="url(#f)"><path fill="#0DA9EF" d="M 0 0 L 16.207031 0 L 16.207031 40.511719 L 0 40.511719 Z M 0 0"/></g></g></g></g></g><g clip-path="url(#g)"><path fill="#0DA9EF" d="M 35.972656 4.210938 C 35.757812 4 35.417969 4 35.207031 4.210938 L 33.203125 6.210938 L 20.628906 6.210938 L 4.816406 22.152344 C 4.457031 22.511719 4.257812 22.992188 4.257812 23.5 C 4.257812 24.011719 4.457031 24.488281 4.816406 24.847656 L 15.871094 35.90625 C 16.242188 36.277344 16.730469 36.460938 17.21875 36.460938 C 17.707031 36.460938 18.195312 36.273438 18.570312 35.898438 L 33.96875 20.085938 L 33.96875 6.976562 L 35.972656 4.972656 C 36.183594 4.761719 36.183594 4.421875 35.972656 4.210938 Z M 32.886719 19.648438 L 17.804688 35.140625 C 17.480469 35.464844 16.957031 35.464844 16.636719 35.140625 L 5.578125 24.085938 C 5.257812 23.761719 5.257812 23.238281 5.582031 22.917969 L 21.078125 7.292969 L 32.125 7.292969 L 29.511719 9.902344 C 29.085938 9.621094 28.574219 9.453125 28.027344 9.453125 C 26.535156 9.453125 25.324219 10.664062 25.324219 12.15625 C 25.324219 13.644531 26.535156 14.855469 28.027344 14.855469 C 29.515625 14.855469 30.726562 13.644531 30.726562 12.15625 C 30.726562 11.605469 30.558594 11.09375 30.277344 10.667969 L 32.886719 8.054688 Z M 29.648438 12.15625 C 29.648438 13.046875 28.917969 13.773438 28.027344 13.773438 C 27.132812 13.773438 26.40625 13.046875 26.40625 12.15625 C 26.40625 11.261719 27.132812 10.535156 28.027344 10.535156 C 28.277344 10.535156 28.507812 10.59375 28.71875 10.695312 L 27.644531 11.773438 C 27.433594 11.984375 27.433594 12.324219 27.644531 12.535156 C 27.75 12.640625 27.886719 12.695312 28.027344 12.695312 C 28.164062 12.695312 28.304688 12.640625 28.40625 12.535156 L 29.484375 11.460938 C 29.585938 11.671875 29.648438 11.90625 29.648438 12.15625 Z M 29.648438 12.15625"/></g><path fill="#0DA9EF" d="M 22.382812 25.378906 L 16.652344 31.105469 C 16.441406 31.316406 16.441406 31.660156 16.652344 31.871094 C 16.757812 31.976562 16.894531 32.027344 17.03125 32.027344 C 17.171875 32.027344 17.308594 31.976562 17.414062 31.871094 L 23.144531 26.140625 C 23.355469 25.929688 23.355469 25.589844 23.144531 25.378906 C 22.933594 25.167969 22.59375 25.167969 22.382812 25.378906 Z M 22.382812 25.378906"/><path fill="#0DA9EF" d="M 24.289062 23.464844 C 24.191406 23.566406 24.132812 23.707031 24.132812 23.847656 C 24.132812 23.988281 24.191406 24.128906 24.289062 24.234375 C 24.390625 24.332031 24.53125 24.390625 24.671875 24.390625 C 24.816406 24.390625 24.957031 24.332031 25.054688 24.234375 C 25.152344 24.128906 25.210938 23.996094 25.210938 23.847656 C 25.210938 23.703125 25.152344 23.5625 25.054688 23.464844 C 24.859375 23.265625 24.488281 23.265625 24.289062 23.464844 Z M 24.289062 23.464844"/><path fill="#0DA9EF" d="M 19.707031 18.882812 C 19.917969 18.671875 19.917969 18.332031 19.707031 18.121094 C 19.496094 17.910156 19.15625 17.910156 18.945312 18.121094 L 13.214844 23.847656 C 13.003906 24.0625 13.003906 24.402344 13.214844 24.613281 C 13.320312 24.71875 13.457031 24.773438 13.59375 24.773438 C 13.734375 24.773438 13.871094 24.71875 13.976562 24.613281 Z M 19.707031 18.882812"/><path fill="#0DA9EF" d="M 17.796875 25.378906 C 17.902344 25.484375 18.039062 25.535156 18.179688 25.535156 C 18.316406 25.535156 18.457031 25.484375 18.5625 25.378906 L 22.378906 21.558594 C 22.59375 21.347656 22.59375 21.003906 22.378906 20.792969 C 22.167969 20.582031 21.828125 20.582031 21.617188 20.792969 L 17.796875 24.613281 C 17.585938 24.824219 17.585938 25.167969 17.796875 25.378906 Z M 17.796875 25.378906"/><path fill="#0DA9EF" d="M 14.742188 27.667969 L 13.976562 28.433594 C 13.765625 28.644531 13.765625 28.988281 13.976562 29.199219 C 14.082031 29.304688 14.222656 29.355469 14.359375 29.355469 C 14.496094 29.355469 14.636719 29.304688 14.742188 29.199219 L 15.503906 28.433594 C 15.714844 28.222656 15.714844 27.878906 15.503906 27.667969 C 15.292969 27.457031 14.953125 27.457031 14.742188 27.667969 Z M 14.742188 27.667969"/><path fill="#0DA9EF" d="M 15.125 17.355469 C 14.910156 17.144531 14.570312 17.144531 14.359375 17.355469 L 8.628906 23.085938 C 8.417969 23.296875 8.417969 23.636719 8.628906 23.847656 C 8.734375 23.953125 8.875 24.007812 9.011719 24.007812 C 9.148438 24.007812 9.289062 23.953125 9.394531 23.847656 L 15.125 18.121094 C 15.335938 17.910156 15.335938 17.566406 15.125 17.355469 Z M 15.125 17.355469"/><path fill="#0DA9EF" d="M 16.648438 16.367188 C 16.796875 16.367188 16.929688 16.308594 17.03125 16.210938 C 17.128906 16.109375 17.1875 15.96875 17.1875 15.828125 C 17.1875 15.683594 17.128906 15.542969 17.03125 15.445312 C 16.832031 15.246094 16.464844 15.246094 16.273438 15.445312 C 16.167969 15.546875 16.109375 15.683594 16.109375 15.828125 C 16.109375 15.96875 16.167969 16.109375 16.265625 16.210938 C 16.367188 16.308594 16.507812 16.367188 16.648438 16.367188 Z M 16.648438 16.367188"/><path fill="#0DA9EF" d="M 11.683594 25.378906 C 11.582031 25.476562 11.527344 25.617188 11.527344 25.761719 C 11.527344 25.902344 11.582031 26.042969 11.683594 26.140625 C 11.789062 26.242188 11.921875 26.300781 12.070312 26.300781 C 12.210938 26.300781 12.351562 26.242188 12.453125 26.140625 C 12.550781 26.039062 12.609375 25.902344 12.609375 25.761719 C 12.609375 25.617188 12.550781 25.480469 12.445312 25.378906 C 12.246094 25.179688 11.886719 25.179688 11.683594 25.378906 Z M 11.683594 25.378906"/><path fill="#0DA9EF" d="M 17.03125 26.90625 C 17.136719 26.804688 17.1875 26.664062 17.1875 26.523438 C 17.1875 26.382812 17.136719 26.242188 17.03125 26.140625 C 16.832031 25.941406 16.464844 25.941406 16.265625 26.140625 C 16.167969 26.242188 16.109375 26.382812 16.109375 26.523438 C 16.109375 26.664062 16.167969 26.804688 16.265625 26.90625 C 16.367188 27.003906 16.507812 27.0625 16.648438 27.0625 C 16.796875 27.0625 16.929688 27.003906 17.03125 26.90625 Z M 17.03125 26.90625"/></svg>